<?xml version="1.0" encoding="utf-8"?>
<!-- Generator: Adobe Illustrator 27.5.0, SVG Export Plug-In . SVG Version: 6.00 Build 0)  -->
<svg version="1.1" id="Capa_1" xmlns="http://www.w3.org/2000/svg" xmlns:xlink="http://www.w3.org/1999/xlink" x="0px" y="0px"
	 viewBox="0 0 1752 2569" style="enable-background:new 0 0 1752 2569;" xml:space="preserve">
<g>
	<path style="fill:#DFF2FD;" d="M1210.711,227.552H541.082c-31.773,0-57.528,25.76-57.528,57.529v198.82
		c0,31.773,25.756,57.529,57.528,57.529h-1.042v1463.958c0,185.487,150.369,335.856,335.856,335.856
		c185.488,0,335.856-150.369,335.856-335.856V541.43h-1.042c31.772,0,57.529-25.756,57.529-57.529v-198.82
		C1268.24,253.312,1242.483,227.552,1210.711,227.552z"/>
	<path style="fill:#B7E2FA;" d="M1268.24,483.901c0,0-665.742,24.946-702.161-18.234c-36.415-43.181-22.997-133.941-24.996-238.111
		c-31.773,0-57.528,25.756-57.528,57.525v198.82c0,31.773,25.756,57.529,57.528,57.529h-1.042v39.522h671.713V541.43h-1.042
		C1242.483,541.43,1268.24,515.674,1268.24,483.901z"/>
	<path style="fill:#BCE4FA;" d="M875.897,2272.59c-155.795,0-282.094-126.299-282.094-282.094V541.43h564.188v1449.065
		C1157.991,2146.291,1031.692,2272.59,875.897,2272.59"/>
	<path style="fill:#73BAE8;" d="M784.571,2257.478c-13.023-17.558-25.802-38.188-37.083-62.207
		c-22.841-48.631-39.519-111.111-39.519-189.883v-944.436V541.43H540.04v39.522v1424.436c0,185.487,150.369,335.856,335.856,335.856
		C875.897,2341.244,828.856,2317.181,784.571,2257.478z"/>
	<path style="fill:#92C3EA;" d="M593.803,580.952H540.04v1424.436c0,185.487,150.369,335.856,335.856,335.856
		c0,0-47.041-24.063-91.326-83.766c-110.978-37.951-190.768-143.147-190.768-266.983V580.952"/>
	<path style="fill:#FFFFFF;" d="M626.285,329.022h561.458c19.718,0,35.852-16.134,35.852-35.852l0,0
		c0-19.719-16.134-35.852-35.852-35.852H626.285c-19.719,0-35.852,16.133-35.852,35.852l0,0
		C590.432,312.889,606.566,329.022,626.285,329.022z"/>
	<path style="fill:#03B1DE;" d="M635.436,1060.952v930.979c0,132.802,107.659,240.462,240.461,240.462
		c132.802,0,240.462-107.659,240.462-240.462v-930.979H635.436"/>
	<polyline style="fill:#77B7D7;" points="1157.991,580.952 593.803,580.952 593.803,541.43 1157.991,541.43 1157.991,580.952 	"/>
	<path style="fill:#009BD1;" d="M707.968,1060.952h-72.533v930.979c0,85.587,44.708,160.727,112.052,203.341
		c-22.841-48.631-39.519-111.11-39.519-189.883V1060.952"/>
	<path style="fill:#76C9F2;" d="M1086.397,1862.754c-1.073,19.426-2.53,39.762-12.459,56.507
		c-9.931,16.746-31.226,28.177-48.023,19.938c-11.598-5.689-17.823-18.644-22.805-30.901
		c-34.261-84.291-31.097-326.543-32.859-418.744c-1.762-92.2,9.124-288.07,17.509-326.561c5.385-24.721,16.476-53.668,40.495-58.439
		c19.404-3.853,37.927,11.64,45.372,30.295c7.445,18.655,20.673,506.412,18.497,588.024
		C1090.88,1769.509,1088.97,1816.143,1086.397,1862.754z"/>
	<path style="fill:#DFF2FD;" d="M1019.753,967.35c-14.01-82.672-3.06-269.438,7.322-307.439
		c6.667-24.406,19.252-52.736,43.488-56.246c19.578-2.836,37.268,13.602,43.729,32.62c3.925,11.551,1.803,163.685-2.577,325.001
		C1108.884,1065.571,1035.161,1058.271,1019.753,967.35z"/>
	<path style="fill:#0085B8;" d="M845.724,1124.948c-0.426-1.516-1.192-2.833-2.302-3.95c-0.604-0.466-1.208-0.933-1.812-1.4
		c-1.396-0.81-2.902-1.217-4.518-1.222c-1.232-0.047-2.382,0.211-3.449,0.772c-1.11,0.361-2.07,0.977-2.88,1.85
		c-0.873,0.811-1.49,1.771-1.851,2.881c-0.561,1.067-0.817,2.217-0.771,3.448c0.106,0.793,0.213,1.586,0.32,2.38
		c0.425,1.516,1.192,2.833,2.302,3.95c0.604,0.467,1.208,0.933,1.811,1.4c1.396,0.81,2.903,1.217,4.518,1.222
		c1.232,0.047,2.382-0.21,3.449-0.771c1.109-0.361,2.07-0.978,2.881-1.851c0.873-0.811,1.49-1.771,1.851-2.88
		c0.56-1.066,0.817-2.216,0.771-3.449C845.938,1126.534,845.831,1125.741,845.724,1124.948z"/>
	<path style="fill:#0085B8;" d="M793.89,2105.559l-0.155-0.606l-0.327-1.318c-1.077-3.84-3.019-7.174-5.829-10.002
		c-2.053-2.211-4.484-3.773-7.296-4.687c-2.701-1.42-5.612-2.071-8.733-1.953c-4.092,0.013-7.905,1.044-11.441,3.095
		c-0.583,0.252-1.165,0.505-1.748,0.756l-0.315,0.134c-1.646,1.271-3.293,2.543-4.938,3.815c-1.272,1.646-2.543,3.292-3.816,4.938
		l-0.222,0.518l-0.472,1.102l-0.222,0.518c-0.423,0.985-0.84,1.972-1.251,2.963c-0.436,0.979-0.851,1.967-1.249,2.962
		c-0.416,1.027-0.568,2.124-0.459,3.288c-0.578,2.149-0.578,4.298,0,6.447c0.241,1.792,0.254,2.64,0.679,4.022
		c0.727,3.056,2.127,5.717,4.202,7.985c1.655,2.556,3.851,4.571,6.588,6.047c1.87,0.789,3.739,1.577,5.609,2.367
		c4.161,1.118,8.322,1.118,12.483,0l0.573-0.211c4.232-1.55,7.699-2.87,10.834-6.285c1.265-1.635,2.528-3.272,3.792-4.907
		l0.142-0.242l0.869-1.519l0.208-0.364c1.057-1.852,1.888-3.816,2.494-5.89C795.052,2114.208,795.052,2109.883,793.89,2105.559z"/>
	<path style="fill:#0085B8;" d="M840.044,1187.552c-15.05,0-15.075,23.389,0,23.389
		C855.094,1210.941,855.119,1187.552,840.044,1187.552z"/>
	<path style="fill:#0085B8;" d="M846.049,1245.38c-10.219,0-10.237,15.882,0,15.882
		C856.269,1261.262,856.285,1245.38,846.049,1245.38z"/>
	<path style="fill:#0085B8;" d="M781.621,1401.754c-0.267-0.822-0.724-1.532-1.37-2.132l-1.34-1.036l-1.582-0.667
		c-0.881-0.276-1.761-0.316-2.642-0.119c-0.881,0.041-1.703,0.303-2.462,0.787c-1.03,0.585-1.931,1.501-2.489,2.546l-0.112,0.208
		l-0.231,0.433l-0.471,0.882l-0.611,1.448c-0.253,0.807-0.289,1.612-0.108,2.418c0.002,0.548,0.14,1.058,0.414,1.53
		c0.244,0.752,0.662,1.403,1.254,1.952l1.227,0.948l1.449,0.611c0.806,0.253,1.612,0.289,2.418,0.109
		c0.807-0.037,1.558-0.277,2.255-0.72l0.881-0.471l0.433-0.231l0.209-0.112c1.045-0.559,1.961-1.458,2.546-2.489l0.668-1.582
		c0.276-0.88,0.315-1.76,0.118-2.641C782.071,1402.828,781.92,1402.271,781.621,1401.754z"/>
	<path style="fill:#0085B8;" d="M755.048,1253.322c-10.034,0-10.049,15.593,0,15.593
		C765.082,1268.914,765.099,1253.322,755.048,1253.322z"/>
	<path style="fill:#0085B8;" d="M937.535,1144.979c-0.562-2.005-1.576-3.745-3.043-5.222c-0.798-0.617-1.597-1.233-2.395-1.85
		c-1.846-1.071-3.837-1.609-5.972-1.616c-1.629-0.062-3.149,0.278-4.56,1.019c-1.467,0.477-2.736,1.293-3.809,2.447
		c-1.154,1.072-1.969,2.342-2.447,3.809c-0.741,1.411-1.08,2.93-1.019,4.559c0.141,1.049,0.282,2.097,0.423,3.146
		c0.562,2.005,1.576,3.745,3.043,5.222c0.799,0.616,1.597,1.233,2.395,1.85c1.846,1.07,3.836,1.609,5.973,1.616
		c1.629,0.061,3.149-0.279,4.559-1.019c1.467-0.477,2.737-1.294,3.809-2.447c1.154-1.072,1.969-2.342,2.447-3.808
		c0.741-1.411,1.081-2.93,1.019-4.559C937.817,1147.076,937.676,1146.028,937.535,1144.979z"/>
	<path style="fill:#0085B8;" d="M893.472,1521.249c-1.069-3.816-3.001-7.129-5.792-9.939c-1.519-1.174-3.039-2.348-4.558-3.522
		c-3.513-2.038-7.302-3.062-11.368-3.075c-3.101-0.117-5.993,0.53-8.678,1.94c-2.792,0.908-5.209,2.461-7.249,4.657
		c-2.196,2.04-3.749,4.456-4.657,7.249c-1.41,2.684-2.056,5.576-1.939,8.677c0.268,1.996,0.536,3.992,0.805,5.988
		c1.07,3.816,3.001,7.129,5.792,9.939c1.52,1.174,3.039,2.348,4.558,3.522c3.513,2.038,7.303,3.062,11.368,3.075
		c3.101,0.117,5.994-0.529,8.678-1.94c2.792-0.908,5.209-2.461,7.248-4.657c2.196-2.04,3.749-4.456,4.657-7.248
		c1.41-2.685,2.056-5.577,1.94-8.678C894.009,1525.24,893.741,1523.244,893.472,1521.249z"/>
	<path style="fill:#0085B8;" d="M750.55,1570.139c-14.864,0-14.888,23.101,0,23.101
		C765.414,1593.241,765.439,1570.139,750.55,1570.139z"/>
	<path style="fill:#0085B8;" d="M773.386,1649.282c-10.22,0-10.237,15.882,0,15.882
		C783.605,1665.164,783.622,1649.282,773.386,1649.282z"/>
	<path style="fill:#0085B8;" d="M861.565,1707.973c-1.206-4.299-3.381-8.033-6.527-11.2c-1.712-1.322-3.424-2.645-5.137-3.968
		c-3.958-2.296-8.228-3.451-12.809-3.465c-3.494-0.132-6.753,0.597-9.778,2.186c-3.146,1.023-5.869,2.772-8.168,5.247
		c-2.475,2.299-4.224,5.022-5.248,8.168c-1.589,3.025-2.318,6.284-2.186,9.778c0.303,2.249,0.605,4.498,0.906,6.747
		c1.206,4.299,3.382,8.033,6.527,11.2c1.712,1.322,3.424,2.645,5.137,3.968c3.958,2.296,8.228,3.451,12.809,3.465
		c3.494,0.132,6.753-0.597,9.778-2.186c3.146-1.023,5.869-2.772,8.168-5.247c2.475-2.299,4.224-5.022,5.248-8.168
		c1.589-3.025,2.318-6.284,2.186-9.779C862.169,1712.471,861.867,1710.222,861.565,1707.973z"/>
	<path style="fill:#0085B8;" d="M775.142,1846.02c-10.219,0-10.236,15.882,0,15.882
		C785.361,1861.901,785.378,1846.02,775.142,1846.02z"/>
	<path style="fill:#0085B8;" d="M900.947,1810.292c-17.768,0-17.797,27.613,0,27.613
		C918.714,1837.905,918.744,1810.292,900.947,1810.292z"/>
	<path style="fill:#0085B8;" d="M969.918,1894.237c-0.336-1.198-0.943-2.239-1.819-3.122l-1.432-1.106
		c-1.103-0.64-2.293-0.962-3.57-0.966c-0.974-0.037-1.883,0.166-2.726,0.61c-0.877,0.285-1.636,0.773-2.276,1.463
		c-0.69,0.64-1.178,1.4-1.463,2.277c-0.443,0.843-0.646,1.751-0.61,2.725c0.085,0.627,0.169,1.254,0.253,1.881
		c0.337,1.199,0.943,2.239,1.82,3.122l1.431,1.106c1.104,0.64,2.294,0.962,3.571,0.966c0.974,0.037,1.883-0.166,2.726-0.609
		c0.877-0.286,1.636-0.773,2.277-1.463c0.69-0.641,1.177-1.401,1.463-2.277c0.443-0.843,0.646-1.751,0.609-2.726
		C970.087,1895.492,970.002,1894.864,969.918,1894.237z"/>
	<path style="fill:#0085B8;" d="M908.544,1998.634c-0.515-1.834-1.443-3.427-2.784-4.779c-1.351-1.342-2.944-2.27-4.779-2.784
		c-1.919-0.515-3.838-0.515-5.757,0c-0.66,0.127-1.318,0.266-1.979,0.38c-2.054,0.576-3.838,1.616-5.352,3.119
		c-1.503,1.513-2.543,3.297-3.119,5.352c-0.578,2.15-0.578,4.299,0,6.448c0.576,2.054,1.616,3.838,3.119,5.352
		c1.513,1.502,3.298,2.543,5.352,3.119c2.149,0.578,4.299,0.578,6.448,0c2.055-0.576,3.839-1.616,5.352-3.119
		c1.503-1.513,2.544-3.297,3.119-5.352c0.114-0.661,0.254-1.319,0.38-1.978C909.06,2002.473,909.06,2000.553,908.544,1998.634z"/>
	<path style="fill:#0085B8;" d="M876.309,1914.204c-0.006-2.033-0.519-3.927-1.538-5.684c-0.535-1.907-1.501-3.564-2.896-4.969
		c-1.001-1.693-2.348-3.039-4.04-4.04c-1.405-1.396-3.062-2.361-4.97-2.896c-2.684-1.41-5.577-2.057-8.678-1.939
		c-1.996,0.268-3.992,0.536-5.987,0.804c-1.794,0.757-3.587,1.514-5.381,2.271c-1.519,1.173-3.039,2.348-4.558,3.521
		c-1.174,1.519-2.348,3.039-3.522,4.558c-0.757,1.794-1.513,3.587-2.27,5.38c-0.939,2.994-1.073,5.988-0.402,8.981
		c0.006,2.033,0.519,3.927,1.538,5.684c0.908,2.792,2.461,5.208,4.657,7.249l1.356,1.228c1.867,2.009,4.077,3.429,6.632,4.26
		c2.455,1.29,5.102,1.881,7.938,1.774c1.826-0.245,3.652-0.491,5.478-0.736c3.491-0.979,6.522-2.745,9.093-5.299l1.356-1.228
		c1.174-1.52,2.348-3.039,3.522-4.558c0.757-1.794,1.514-3.587,2.27-5.38C876.846,1920.191,876.98,1917.197,876.309,1914.204z"/>
	<path style="fill:#0085B8;" d="M978.897,1969.726c-11.52,0-11.539,17.902,0,17.902
		C990.417,1987.629,990.436,1969.726,978.897,1969.726z"/>
	<path style="fill:#0085B8;" d="M854.188,2043.584c-11.52,0-11.539,17.903,0,17.903
		C865.708,2061.487,865.727,2043.584,854.188,2043.584z"/>
	<path style="fill:#0085B8;" d="M959.797,1695.628c-0.357-1.272-1-2.375-1.932-3.313l-1.519-1.174
		c-1.171-0.679-2.434-1.021-3.789-1.025c-1.034-0.039-1.998,0.176-2.893,0.646c-0.931,0.303-1.736,0.82-2.416,1.552
		c-0.732,0.68-1.25,1.486-1.553,2.417c-0.47,0.895-0.686,1.859-0.646,2.893c0.089,0.665,0.179,1.331,0.268,1.995
		c0.356,1.272,1,2.377,1.931,3.313l1.52,1.174c1.171,0.678,2.434,1.02,3.789,1.025c1.034,0.039,1.998-0.176,2.892-0.647
		c0.932-0.303,1.737-0.82,2.417-1.552c0.732-0.68,1.25-1.485,1.553-2.416c0.47-0.895,0.686-1.859,0.646-2.893
		C959.975,1696.959,959.886,1696.294,959.797,1695.628z"/>
	<path style="fill:#0085B8;" d="M783.827,2000.101c-0.515-1.834-1.443-3.427-2.785-4.778c-0.73-0.564-1.461-1.129-2.192-1.693
		c-1.689-0.979-3.511-1.472-5.465-1.478c-1.491-0.056-2.882,0.255-4.172,0.932c-1.342,0.437-2.504,1.183-3.485,2.24
		c-1.055,0.98-1.802,2.142-2.239,3.485c-0.678,1.29-0.989,2.681-0.932,4.172c0.129,0.96,0.258,1.92,0.387,2.879
		c0.515,1.834,1.443,3.427,2.784,4.778c0.731,0.564,1.461,1.128,2.192,1.693c1.689,0.979,3.511,1.472,5.466,1.478
		c1.491,0.057,2.882-0.254,4.172-0.932c1.342-0.437,2.504-1.184,3.485-2.239c1.056-0.981,1.802-2.142,2.239-3.485
		c0.678-1.29,0.989-2.681,0.932-4.172C784.085,2002.02,783.956,2001.06,783.827,2000.101z"/>
	<path style="fill:#0085B8;" d="M978.897,2033.044c-25.083,0-25.125,38.983,0,38.983
		C1003.982,2072.027,1004.023,2033.044,978.897,2033.044z"/>
	<path style="fill:#0085B8;" d="M789.364,1173.648c-0.961-3.425-2.693-6.397-5.199-8.92c-1.363-1.054-2.727-2.107-4.091-3.161
		c-3.152-1.829-6.553-2.748-10.202-2.76c-2.783-0.104-5.378,0.475-7.787,1.741c-2.506,0.815-4.674,2.208-6.505,4.179
		c-1.971,1.831-3.365,3.999-4.18,6.505c-1.265,2.409-1.846,5.004-1.74,7.787c0.24,1.791,0.481,3.583,0.722,5.373
		c0.96,3.424,2.693,6.398,5.199,8.92c1.364,1.053,2.726,2.107,4.091,3.16c3.152,1.828,6.553,2.748,10.201,2.76
		c2.783,0.104,5.379-0.475,7.789-1.741c2.506-0.815,4.674-2.208,6.504-4.179c1.971-1.831,3.365-4,4.18-6.505
		c1.266-2.409,1.846-5.005,1.74-7.788C789.845,1177.23,789.604,1175.438,789.364,1173.648z"/>
	<path style="fill:#0085B8;" d="M855.945,1324.314c-10.219,0-10.236,15.882,0,15.882
		C866.164,1340.196,866.181,1324.314,855.945,1324.314z"/>
	<path style="fill:#0085B8;" d="M910.858,1392.46c-0.542-1.933-1.519-3.61-2.933-5.033c-0.77-0.595-1.539-1.189-2.308-1.784
		c-1.779-1.031-3.697-1.55-5.757-1.557c-1.57-0.059-3.035,0.268-4.395,0.982c-1.414,0.46-2.638,1.246-3.671,2.359
		c-1.112,1.033-1.899,2.257-2.358,3.671c-0.714,1.359-1.042,2.824-0.983,4.394c0.136,1.011,0.272,2.022,0.408,3.033
		c0.541,1.932,1.52,3.61,2.933,5.032c0.77,0.595,1.539,1.189,2.308,1.784c1.779,1.032,3.698,1.551,5.757,1.557
		c1.571,0.059,3.035-0.268,4.395-0.982c1.414-0.46,2.638-1.246,3.671-2.359c1.112-1.033,1.899-2.256,2.359-3.671
		c0.714-1.359,1.042-2.824,0.982-4.395L910.858,1392.46z"/>
	<path style="fill:#0085B8;" d="M827.839,1422.515c-8.176,0-8.189,12.706,0,12.706
		C836.015,1435.22,836.029,1422.515,827.839,1422.515z"/>
	<path style="fill:#0085B8;" d="M817.096,1326.861c-0.336-1.199-0.943-2.239-1.82-3.122l-1.432-1.107
		c-1.104-0.64-2.294-0.961-3.57-0.965c-0.974-0.037-1.883,0.166-2.727,0.609c-0.877,0.286-1.636,0.773-2.276,1.463
		c-0.69,0.641-1.177,1.4-1.463,2.277c-0.443,0.843-0.646,1.751-0.609,2.725c0.083,0.627,0.168,1.254,0.253,1.881
		c0.336,1.199,0.943,2.24,1.819,3.122l1.432,1.107c1.103,0.64,2.294,0.962,3.571,0.966c0.973,0.036,1.883-0.167,2.726-0.61
		c0.877-0.285,1.635-0.773,2.276-1.463c0.69-0.64,1.177-1.399,1.463-2.276c0.443-0.843,0.646-1.751,0.61-2.726
		C817.264,1328.115,817.179,1327.489,817.096,1326.861z"/>
	<path style="fill:#0085B8;" d="M794.761,1231.787c-5.388,0-5.397,8.374,0,8.374C800.15,1240.161,800.159,1231.787,794.761,1231.787
		z"/>
	<path style="fill:#0085B8;" d="M769.872,1320.922c-21.367,0-21.402,33.207,0,33.207
		C791.24,1354.129,791.275,1320.922,769.872,1320.922z"/>
	<path style="fill:#0085B8;" d="M801.786,1467.178c-1.297-2.191-3.041-3.935-5.232-5.231l-0.625-0.375
		c-2.342-1.358-4.868-2.041-7.578-2.049c-2.711,0.008-5.236,0.692-7.578,2.049c-2.256,1.335-4.052,3.131-5.387,5.388
		c-1.359,2.342-2.041,4.868-2.05,7.578c0.009,2.71,0.692,5.237,2.05,7.578c1.335,2.257,3.131,4.052,5.387,5.387
		c2.342,1.358,4.867,2.042,7.578,2.05c2.71-0.008,5.237-0.692,7.578-2.05l0.625-0.374c2.191-1.297,3.935-3.04,5.232-5.232
		c1.319-2.275,1.983-4.727,1.991-7.36C803.769,1471.906,803.105,1469.453,801.786,1467.178z"/>
	<path style="fill:#0085B8;" d="M905.129,1633.449c-7.99,0-8.003,12.417,0,12.417
		C913.118,1645.866,913.132,1633.449,905.129,1633.449z"/>
	<path style="fill:#0085B8;" d="M885.803,2112.884c-7.99,0-8.003,12.416,0,12.416C893.793,2125.3,893.806,2112.884,885.803,2112.884
		z"/>
	<path style="fill:#0085B8;" d="M839.792,1607.953c-0.329-1.174-0.923-2.193-1.782-3.057l-1.403-1.084
		c-1.081-0.627-2.247-0.942-3.497-0.946c-0.954-0.036-1.845,0.162-2.67,0.597c-0.86,0.279-1.602,0.757-2.231,1.433
		c-0.675,0.627-1.153,1.371-1.432,2.23c-0.434,0.826-0.633,1.716-0.597,2.67c0.082,0.614,0.165,1.228,0.247,1.842
		c0.329,1.174,0.924,2.194,1.782,3.058l1.403,1.084c1.081,0.627,2.247,0.943,3.498,0.946c0.954,0.036,1.844-0.163,2.67-0.597
		c0.859-0.279,1.602-0.757,2.23-1.433c0.676-0.628,1.153-1.371,1.433-2.231c0.434-0.825,0.633-1.716,0.597-2.67L839.792,1607.953z"
		/>
	<path style="fill:#0085B8;" d="M894.59,1447.877c-11.706,0-11.725,18.192,0,18.192
		C906.295,1466.069,906.314,1447.877,894.59,1447.877z"/>
	<path style="fill:#0085B8;" d="M903.372,1300.324c-11.705,0-11.725,18.192,0,18.192
		C915.078,1318.516,915.098,1300.324,903.372,1300.324z"/>
	<path style="fill:#0085B8;" d="M832.23,1788.279c-0.562-2.006-1.577-3.747-3.045-5.225c-0.799-0.617-1.597-1.234-2.396-1.851
		c-1.847-1.071-3.839-1.609-5.976-1.616c-1.63-0.062-3.151,0.279-4.562,1.02c-1.467,0.477-2.737,1.293-3.81,2.447
		c-1.155,1.073-1.971,2.343-2.448,3.81c-0.741,1.411-1.081,2.932-1.02,4.562c0.141,1.049,0.282,2.098,0.423,3.148
		c0.562,2.005,1.577,3.746,3.045,5.223c0.799,0.617,1.597,1.235,2.396,1.852c1.847,1.071,3.839,1.609,5.975,1.616
		c1.63,0.062,3.151-0.278,4.561-1.019c1.468-0.478,2.738-1.294,3.81-2.449c1.155-1.072,1.97-2.342,2.448-3.81
		c0.741-1.411,1.081-2.931,1.019-4.561C832.511,1790.377,832.37,1789.327,832.23,1788.279z"/>
	<path style="fill:#0085B8;" d="M722.444,1782.83c-14.678,0-14.703,22.812,0,22.812
		C737.123,1805.642,737.147,1782.83,722.444,1782.83z"/>
	<polyline style="fill:#399AC8;" points="707.968,541.43 593.803,541.43 593.803,580.952 707.968,580.952 707.968,541.43 	"/>
</g>
</svg>
